<svg width="128" height="128" viewBox="0 0 128 128" fill="none" xmlns="http://www.w3.org/2000/svg">
<path d="M43.0817 91.4771C38.6994 91.4771 34.973 90.3594 31.912 88.124C28.851 85.8887 26.503 82.7535 24.887 78.7091C23.2709 74.6646 22.4629 69.9571 22.4629 64.5961C22.4629 59.2351 23.2709 54.4613 24.887 50.4168C26.503 46.3724 28.8605 43.2183 31.95 40.964C35.0395 38.7097 38.7469 37.5731 43.0817 37.5731C48.7093 37.5731 53.1962 39.098 56.5329 42.148C59.8695 45.1979 61.8088 49.3276 62.3601 54.5465H53.6145C53.1677 51.8187 52.0555 49.5454 50.2873 47.7363C48.5192 45.9272 46.0856 45.0179 43.0056 45.0179C39.0701 45.0179 36.0091 46.7513 33.8132 50.2274C31.6173 53.7036 30.5241 58.4868 30.5241 64.5961C30.5241 70.7054 31.6173 75.4034 33.8132 78.8512C36.0091 82.2989 39.0701 84.0228 43.0056 84.0228C46.1902 84.0228 48.6333 83.1892 50.3254 81.5317C52.0174 79.8741 53.1107 77.6767 53.6145 74.9393H62.3601C61.5616 80.0541 59.5463 84.0891 56.3047 87.0348C53.0631 89.99 48.6618 91.4676 43.0817 91.4676V91.4771Z" fill="#195EDC"/>
<path d="M87.0854 91.477C83.5491 91.477 80.3836 90.6814 77.5983 89.0996C74.8035 87.5083 72.6171 85.2635 71.0201 82.3652C69.423 79.4573 68.6245 76.0475 68.6245 72.1262C68.6245 68.2048 69.423 64.795 71.0201 61.8871C72.6171 58.9793 74.8035 56.7345 77.5983 55.1527C80.3836 53.5614 83.5777 52.7658 87.1615 52.7658C90.7453 52.7658 93.9203 53.5614 96.6866 55.1527C99.4529 56.744 101.62 58.9888 103.189 61.8871C104.757 64.795 105.546 68.2048 105.546 72.1262C105.546 76.0475 104.748 79.4573 103.151 82.3652C101.554 85.2635 99.3768 87.5178 96.6106 89.0996C93.8443 90.6909 90.6692 91.477 87.0854 91.477ZM87.0854 83.9564C88.9771 83.9564 90.7168 83.5397 92.3138 82.6872C93.9108 81.8442 95.1941 80.5371 96.1638 78.7754C97.1334 77.0136 97.6182 74.7877 97.6182 72.1167C97.6182 69.4456 97.1334 67.1535 96.1638 65.4201C95.1941 63.6868 93.9203 62.3891 92.3518 61.5462C90.7833 60.7032 89.0532 60.2769 87.1615 60.2769C85.2697 60.2769 83.5206 60.7032 81.9331 61.5462C80.3361 62.3891 79.0527 63.6773 78.0831 65.4201C77.1135 67.1535 76.6287 69.3888 76.6287 72.1167C76.6287 76.1895 77.6648 79.1732 79.7277 81.0865C81.7905 82.9998 84.2526 83.9564 87.0854 83.9564Z" fill="#195EDC"/>
<path d="M8.26082 104.548C5.60861 104.548 3.5648 103.838 2.13888 102.417C0.71296 100.996 0 98.9598 0 96.3171V32.231C0 29.5789 0.71296 27.5519 2.13888 26.1312C3.5648 24.7104 5.59911 24 8.26082 24H20.21V30.7155H9.56316C8.01367 30.7155 7.24367 31.4827 7.24367 33.0266V95.531C7.24367 97.0749 8.01367 97.8421 9.56316 97.8421H20.21V104.558H8.26082V104.548Z" fill="#195EDC"/>
<path d="M107.79 104.548V97.8326H118.437C119.986 97.8326 120.756 97.0654 120.756 95.5215V33.0171C120.756 31.4732 119.986 30.706 118.437 30.706H107.79V24H119.739C122.391 24 124.435 24.7104 125.861 26.1312C127.287 27.5519 128 29.5884 128 32.231V96.3171C128 98.9598 127.287 100.996 125.861 102.417C124.435 103.838 122.391 104.548 119.739 104.548H107.79Z" fill="#195EDC"/>
</svg>
