<svg xmlns="http://www.w3.org/2000/svg" fill="none" viewBox="0 0 112 24"><path fill="#000" d="M41.484 20v-2h3.855V6.73q0-.73-.714-.73h-2.476V3.999h2.898c.861 0 1.484.226 1.937.677q.68.678.68 1.965V18h3.855v2zM66.24 20.001V18h2.693v-6.601q0-.731-.711-.731h-1.759V8.667h2.648q.913 0 1.493.522.578.521.578 1.454v.265h.11q.247-1.242 1.057-1.874.81-.631 2.37-.632h1.714v2.483h-2.405q-1.314 0-2.025.909-.71.911-.71 2.173V18h3.427v2.001h-8.483zM78.971 20v-2h3.472v-6.601q0-.731-.71-.731h-2.45V8.667h2.872q1.38.001 2.013.632c.422.42.635 1.092.635 2.007V18h3.512v2h-9.347zm4.433-12.688q-.78 0-1.303-.5a1.64 1.64 0 0 1-.524-1.23q0-.732.524-1.219.522-.487 1.303-.488c.52 0 .977.164 1.325.488q.524.487.524 1.22 0 .731-.524 1.23-.522.5-1.325.5"/><path fill="#195edc" d="M12.837 20.105q-1.96 0-3.329-.999-1.369-.998-2.093-2.805-.722-1.808-.722-4.205c0-1.597.24-3.02.722-4.225q.723-1.809 2.105-2.816 1.38-1.009 3.316-1.01 2.516 0 4.008 1.362 1.491 1.364 1.737 3.695h-2.606q-.2-1.22-.992-2.03-.79-.81-2.17-.81-1.758 0-2.738 1.553-.98 1.551-.98 4.281c0 1.82.326 3.22.98 4.247q.98 1.541 2.739 1.541 1.425 0 2.18-.742.756-.741.98-1.964h2.607q-.356 2.286-1.805 3.604-1.447 1.32-3.94 1.32zM25.948 20.105q-1.581 0-2.827-.708a5.07 5.07 0 0 1-1.96-2.007q-.714-1.299-.714-3.05 0-1.753.714-3.051a5.04 5.04 0 0 1 1.96-2.007q1.246-.711 2.85-.711 1.6 0 2.838.711a5 5 0 0 1 1.937 2.007q.701 1.298.702 3.05 0 1.753-.713 3.051c-.476.864-1.125 1.536-1.95 2.007q-1.235.71-2.837.708m0-2.24q.845.001 1.558-.379.714-.376 1.147-1.165t.433-1.984c0-.796-.144-1.48-.433-1.995q-.435-.777-1.136-1.155a3.2 3.2 0 0 0-1.546-.378q-.847 0-1.558.378-.714.376-1.148 1.155-.432.775-.433 1.995 0 1.818.924 2.672a3.12 3.12 0 0 0 2.192.855"/><path fill="#000" d="m54.754 24 2.376-5.24h-.646L52.187 8.666h2.561l3.294 8.052 3.495-8.052h2.473L57.24 24zM95.286 20.105q-1.537 0-2.75-.708a4.97 4.97 0 0 1-1.904-2.007q-.69-1.299-.691-3.05 0-1.753.703-3.04a5.17 5.17 0 0 1 1.903-2.006q1.2-.72 2.739-.72 2.115.002 3.419 1.053 1.303 1.053 1.659 2.895h-2.47a2.2 2.2 0 0 0-.9-1.264q-.68-.466-1.725-.466-.756 0-1.436.4t-1.09 1.189q-.412.788-.411 1.964c0 .785.136 1.42.41 1.953q.412.801 1.09 1.208.681.41 1.437.41 1.066 0 1.713-.466.646-.466.912-1.287h2.47q-.445 1.819-1.736 2.884-1.291 1.063-3.34 1.064zM107.392 20.105q-2.183 0-3.473-1.021t-1.47-2.707h2.427q.132.776.791 1.265.655.487 1.747.488c.728 0 1.235-.144 1.615-.432q.567-.431.566-1.01 0-.842-.679-1.155-.68-.308-1.992-.465a7.5 7.5 0 0 1-2.059-.522q-.925-.389-1.459-1.064-.534-.677-.535-1.696.001-1.444 1.136-2.329 1.134-.887 3.161-.886 2.026.001 3.138.909 1.113.909 1.292 2.483h-2.272q-.088-.666-.691-1.052-.602-.39-1.493-.39c-.594 0-1.09.116-1.447.345q-.535.342-.535.897 0 1.198 2.583 1.465 1.225.132 2.181.454c.637.214 1.144.547 1.512 1q.557.676.558 1.896a2.85 2.85 0 0 1-.566 1.797q-.59.8-1.626 1.265t-2.416.465z"/><path fill="#195edc" d="M2.461 24q-1.186 0-1.824-.635Q0 22.729 0 21.548V2.451Q0 1.268.637.635 1.273 0 2.461 0h3.56v2H2.85q-.69 0-.69.69v18.623q0 .69.69.689h3.173v2h-3.56zM32.117 24v-2h3.172q.692 0 .691-.69V2.687q0-.69-.69-.689h-3.173V0h3.56q1.186 0 1.824.635.638.636.638 1.817v19.095q0 1.183-.638 1.818-.637.635-1.824.635z"/></svg>